<?xml version="1.0" encoding="utf-8"?>
<!-- Generator: Adobe Illustrator 21.0.0, SVG Export Plug-In . SVG Version: 6.00 Build 0)  -->
<svg version="1.1" id="图层_1" xmlns="http://www.w3.org/2000/svg" xmlns:xlink="http://www.w3.org/1999/xlink" x="0px" y="0px"
	 viewBox="0 0 612 792" style="enable-background:new 0 0 612 792;" xml:space="preserve">
<style type="text/css">
	.st0{clip-path:url(#SVGID_2_);fill:#f7b4bb;}
	.st1{fill:#f7b4bb;}
</style>
<g>
	<path class="st0" d="M482.1,346.8l0.4,0.3l-171-278l-171,278.1l0.5-0.3c-28.3,36.5-45.3,82.2-45.3,131.9
		c0,119.2,96.6,215.8,215.8,215.8c119.2,0,215.8-96.6,215.8-215.8C527.4,429,510.4,383.3,482.1,346.8L482.1,346.8z M311.6,643.9
		c-91.2,0-165.2-74-165.2-165.2c0-45.3,18.3-86.4,47.9-116.2h0l104.2-160.8l13.2-21.4l23.2,40.9l87.5,135.1
		c33.4,30.2,54.5,73.8,54.5,122.3C476.8,569.9,402.8,643.9,311.6,643.9L311.6,643.9z M311.6,643.9"/>
	<path class="st0" d="M285,460.8c7-7.9,10.5-18.1,10.5-30.7c0-12.7-3.2-22.6-9.6-29.7c-6.4-7.1-15.3-10.7-26.6-10.7
		c-11.9,0-21.3,3.9-28.3,11.6c-7,7.7-10.5,18.1-10.5,31.2c0,12.1,3.3,21.7,9.9,29.1c6.6,7.3,15.4,11,26.5,11
		C268.6,472.6,278,468.6,285,460.8L285,460.8z M242.3,452.1c-3.9-4.8-5.8-11.7-5.8-20.6c0-9,2-16.1,5.9-21.1c4-5.1,9.4-7.6,16.2-7.6
		c6.7,0,11.9,2.4,15.6,7.3c3.7,4.9,5.5,11.7,5.5,20.6c0,9.1-1.9,16.2-5.6,21.1c-3.7,5-9.1,7.5-16,7.5
		C251.4,459.3,246.1,456.9,242.3,452.1L242.3,452.1z M242.3,452.1"/>
	<path class="st0" d="M355.2,471.6c-11.8,0-21.2,3.9-28.2,11.7c-7,7.8-10.5,18.3-10.5,31.4c0,11.9,3.3,21.5,9.9,28.9
		c6.6,7.4,15.4,11.1,26.5,11.1c11.4,0,20.7-3.9,27.8-11.7c7.1-7.8,10.6-18,10.6-30.6c0-13-3.2-23-9.6-30.1
		C375.4,475.2,366.5,471.6,355.2,471.6L355.2,471.6z M369.9,533.9c-3.8,5-9.1,7.5-16,7.5c-6.7,0-12-2.4-15.8-7.3
		c-3.9-4.9-5.8-11.6-5.8-20.3c0-9,1.9-16.1,5.8-21.1c3.9-5.1,9.3-7.6,16.3-7.6c6.5,0,11.7,2.4,15.5,7.1c3.8,4.8,5.6,11.6,5.6,20.6
		C375.6,521.8,373.7,528.8,369.9,533.9L369.9,533.9z M369.9,533.9"/>
	<path class="st0" d="M348.1,392.1L245.2,553.3h17.3l102.9-161.2H348.1z M348.1,392.1"/>
</g>
</svg>
