<?xml version="1.0" encoding="utf-8"?>
<!-- Generator: Adobe Illustrator 21.0.0, SVG Export Plug-In . SVG Version: 6.00 Build 0)  -->
<svg version="1.1" id="图层_1" xmlns="http://www.w3.org/2000/svg" xmlns:xlink="http://www.w3.org/1999/xlink" x="0px" y="0px"
	 viewBox="0 0 702 469" style="enable-background:new 0 0 702 469;" xml:space="preserve">
<style type="text/css">
	.st0{clip-path:url(#SVGID_2_);fill:#a0a7ad;}
	.st1{fill:#a0a7ad;}
</style>
<g>
	<path class="st0" d="M348,420.2c-15,0-29.2-5.7-40-15.9c-19.2-18.1-23.8-46.9-11.2-70.1c10.2-18.8,29.8-30.5,51.2-30.5
		c4.6,0,9.1,0.5,13.6,1.6l3.4,0.8l116.3-116.3l0.2-0.2c5-5.9,12.2-9.3,19.9-9.3c2,0,4,0.2,6,0.7c9.6,2.3,17,9.7,19.3,19.3
		c2.3,9.6-1,19.6-8.6,25.9l-0.2,0.2L402.7,341.6l1.1,3.6c7.6,25.2-2.8,52.5-25.2,66.3C369.4,417.2,358.8,420.2,348,420.2z"/>
	<path class="st0" d="M57.7,388c-6.9,0-13.4-2.7-18.3-7.6c-4.8-4.8-7.6-11.6-7.6-18.4c0-42.7,8.4-84.1,24.8-123.1
		c15.9-37.6,38.7-71.5,67.8-100.5c29-29,62.9-51.8,100.5-67.8c39-16.5,80.4-24.8,123.1-24.8c42.7,0,84.1,8.4,123.1,24.8
		c37.6,15.9,71.5,38.7,100.5,67.8c29,29,51.8,62.9,67.8,100.5c16.5,39,24.8,80.4,24.8,123.1c0,6.9-2.7,13.6-7.6,18.4
		c-4.9,4.9-11.4,7.6-18.3,7.6h-64.6c-14.3,0-26-11.7-26-26c0-14.3,11.7-26,26-26H611l-0.9-7C595,209.2,500.8,115,381,99.9l-7-0.9
		v37.3c0,14.3-11.7,26-26,26c-14.3,0-26-11.7-26-26V99l-7,0.9c-47.4,5.9-92.2,24.6-129.8,54.1l-5.5,4.3l15,14.9
		c7.2,7.5,9.3,18.5,5.4,28.1c-4,9.6-13.2,15.9-23.6,16.1l-0.1,0c-6.9,0-13.4-2.7-18.3-7.5l-14.8-14.8l-4.3,5.6
		c-28.8,37.2-47.1,81.6-52.9,128.3l-0.9,7h37.3c14.3,0,26,11.7,26,26c0,14.3-11.7,26-26,26L57.7,388z"/>
	<path class="st0" d="M189.1,158.9"/>
	<path class="st0" d="M189.1,158.9"/>
</g>
</svg>
