<?xml version="1.0" encoding="utf-8"?>
<!-- Generator: Adobe Illustrator 21.0.0, SVG Export Plug-In . SVG Version: 6.00 Build 0)  -->
<svg version="1.1" id="图层_1" xmlns="http://www.w3.org/2000/svg" xmlns:xlink="http://www.w3.org/1999/xlink" x="0px" y="0px"
	 viewBox="0 0 708 866" style="enable-background:new 0 0 708 866;" xml:space="preserve">
<style type="text/css">
	.st0{clip-path:url(#SVGID_2_);fill:#f7b4bb;}
	.st1{fill:#f7b4bb;}
</style>
<g>
	<g>
		<g>
			<defs>
				<rect id="SVGID_1_" x="23" y="41" width="425.8" height="787.9"/>
			</defs>
			<clipPath id="SVGID_2_">
				<use xlink:href="#SVGID_1_"  style="overflow:visible;"/>
			</clipPath>
			<path class="st0" d="M374.2,464.6V179.2c0-75.7-63.9-137.6-141.9-137.6c-78,0-141.9,61.9-141.9,137.6v292
				c-42.7,38.4-67.2,93-67.3,150.4c0,114,95.3,206.4,213,206.4s213-92.4,213-206.4C448.8,560.7,421.3,503.1,374.2,464.6L374.2,464.6
				z M235.9,785.7c-93.5,0-169.5-73.7-169.5-164.4c0-45.7,19.6-89.2,53.7-119.6l13.7-12.3V179c0-52.7,44.2-95.6,98.6-95.6
				c54.4,0,98.5,42.9,98.5,95.6V484l15.2,12.6c37.5,30.7,59.3,76.4,59.5,124.8c0,90.7-76.1,164.4-169.7,164.4V785.7z M317.8,528.4
				l-30.2-25.2V179c0-29-25.4-53.6-55.3-53.6c-29.9,0-55.3,24.6-55.3,53.6v16.4h36v25.6h-36v41.4h36v25.6h-36v41.3h36v25.7h-36v41.5
				h36v25.6h-36v85.2l-27.4,24.9c-25.4,22.7-39.9,55.1-40,89.2c0,67.5,56.6,122.4,126.2,122.4s126.2-55,126.2-122.4
				c-0.2-36-16.4-70.1-44.3-92.9V528.4z M235.9,715.8c-53.7,0-97.4-42.4-97.4-94.5c0.1-26.3,11.3-51.3,31-68.7l36.4-33.2v-51.2h52.9
				v48l40.3,33.5c21.5,17.6,34.1,43.9,34.2,71.7c0,52.1-43.7,94.5-97.4,94.5V715.8z M235.9,715.8"/>
		</g>
	</g>
	<g>
		<path class="st1" d="M450.7,151.2c-11.5,0-21.4-4.1-29.6-12.4c-8.2-8.3-12.3-18.1-12.3-29.7c0-11.8,4.1-21.8,12.4-30
			c8.3-8.2,18.1-12.3,29.5-12.3c11.5,0,21.5,4.1,29.8,12.3s12.5,18.2,12.5,30c0,11.6-4.2,21.5-12.5,29.7
			C472.3,147.1,462.3,151.2,450.7,151.2z M451,84c-6.8,0-12.7,2.4-17.6,7.3c-4.9,4.9-7.3,10.7-7.3,17.6c0,6.8,2.4,12.7,7.3,17.6
			c4.9,4.9,10.7,7.3,17.6,7.3c6.8,0,12.6-2.4,17.4-7.3c4.8-4.9,7.2-10.7,7.2-17.6c0-6.8-2.4-12.7-7.2-17.6
			C463.7,86.5,457.9,84,451,84z M679.4,289.2c-18.1,7.8-39.1,11.7-63,11.7c-34.1,0-61.4-10.4-81.8-31.1
			c-20.5-20.8-30.7-47.8-30.7-81.1c0-36.5,11.3-66,33.8-88.3c22.6-22.4,51.6-33.5,87-33.5c19.7,0,37.9,2.8,54.6,8.3v28.9
			c-15.8-7.6-33.6-11.4-53.5-11.4c-27.2,0-49.3,8.4-66.3,25.3c-16.9,16.9-25.4,39.6-25.4,68.3c0,27.5,8,49.2,24,65
			s37,23.7,63.1,23.7c22.1,0,41.5-4.4,58.2-13.2V289.2z"/>
	</g>
</g>
</svg>
